<?xml version="1.0" encoding="utf-8"?>
<!-- Generator: Adobe Illustrator 22.0.1, SVG Export Plug-In . SVG Version: 6.00 Build 0)  -->
<svg version="1.1" id="Layer_1" xmlns="http://www.w3.org/2000/svg" xmlns:xlink="http://www.w3.org/1999/xlink" x="0px" y="0px"
	 viewBox="0 0 494.4 52.3" style="enable-background:new 0 0 494.4 52.3;" xml:space="preserve">
<style type="text/css">
	.st0{fill:#FFFFFF;}
	.st1{fill:#343434;}
	.st2{fill:#9B9B9B;}
	.st3{fill:none;stroke:#9B9B9B;stroke-width:2;stroke-miterlimit:10;}
</style>
<symbol  id="Small_Logo" viewBox="-54.5 -10.4 50.1 21.2">
	<g>
		<path class="st0" d="M-4.5-10h-15.1v1.9c0.8,1.3,1.2,2.8,1.2,4.4v0.1c0,1.5-0.4,2.9-1.2,4.1v10.1h5.5V-5.3h9.6L-4.5-10z"/>
		<polygon class="st0" points="-40.5,-10 -46.6,-2.7 -49,-5.5 -49,-10 -54.5,-10 -54.5,10.4 -49,10.4 -49,1.8 -41.7,10.4 
			-35.5,10.4 -43.4,1.1 -34,-10 		"/>
		<path class="st0" d="M-20.4-3.8c-0.1-4.1-3.3-6.6-8.4-6.6c-1,0-2.3,0.3-2.5,0.3l-5.2,6.3c3.6-2.1,5.9-2.1,8-2.1
			c1.6,0,2.5,0.6,2.5,1.5l0,0.1c0,1-0.8,1.5-3.6,2.1c-4.2,1-7.7,2.1-7.6,6.4l0,0.1c0.1,3.9,3.3,6.5,8,6.5c3.3,0,6.1-0.9,8.3-2.7
			l-2.8-3.9c-1.8,1.3-3.9,2-5.7,2c-1.6,0-2.2-0.7-2.2-1.4V4.7c0-1,0.7-1.5,3.7-2.1C-23.3,1.6-20.3,0.2-20.4-3.8L-20.4-3.8z"/>
	</g>
</symbol>
<g>
	<g>
		<g>
			<path class="st1" d="M95.3,43.2H66.5v-3.5c1.5-2.4,2.3-5.3,2.3-8.4v-0.1c0-2.9-0.8-5.6-2.3-7.8V4.2h10.5v29.9h18.3L95.3,43.2z"/>
			<polygon class="st1" points="26.6,43.2 15,29.3 10.4,34.6 10.4,43.2 0,43.2 0,4.3 10.4,4.3 10.4,20.7 24.4,4.3 36.2,4.3 
				21.1,22.1 39.1,43.2 			"/>
			<path class="st1" d="M64.9,31.3c-0.1,7.8-6.2,12.6-15.9,12.6c-2,0-4.3-0.5-4.8-0.6l-9.9-12c6.8,4.1,11.3,4.1,15.2,4.1
				c3,0,4.8-1.1,4.8-2.9l0-0.1c0-1.9-1.5-2.8-6.8-4c-8-1.8-14.6-4-14.5-12.2l0-0.1c0.1-7.4,6.3-12.4,15.3-12.4
				c6.3,0,11.5,1.7,15.8,5.1L58.9,16c-3.5-2.5-7.4-3.8-10.9-3.8c-3.1,0-4.2,1.4-4.3,2.8v0.1c0,2,1.4,2.8,6.9,4.1
				c8.7,1.9,14.4,4.7,14.3,12L64.9,31.3z"/>
		</g>
	</g>
	<g>
		<path class="st1" d="M100.4,28v-0.1c0-8.5,6.7-15.8,15.5-15.8c5.7,0,9.3,2.4,12.1,5.4l-3,3.2c-2.4-2.5-5.1-4.6-9.2-4.6
			c-6.1,0-10.8,5.2-10.8,11.7v0.1c0,6.5,4.8,11.7,11.1,11.7c3.9,0,6.8-1.9,9.2-4.5l2.9,2.7c-3,3.4-6.7,5.8-12.3,5.8
			C107.1,43.7,100.4,36.5,100.4,28z"/>
		<path class="st1" d="M132.2,34.2v-0.1c0-6.5,5.3-9.9,12.9-9.9c3.9,0,6.5,0.5,9.2,1.3v-0.9c0-5.4-3.3-8.2-8.9-8.2
			c-3.6,0-6.4,0.9-9.2,2.2l-1.3-3.7c3.3-1.5,6.5-2.6,11-2.6c4.3,0,7.6,1.2,9.8,3.3c2.1,2.1,3.2,5,3.2,8.9V43h-4.4v-4.5
			c-2.1,2.7-5.6,5.1-10.9,5.1C137.8,43.6,132.2,40.4,132.2,34.2z M154.4,31.9v-2.8c-2.2-0.6-5.1-1.3-8.8-1.3c-5.6,0-8.8,2.5-8.8,6.1
			V34c0,3.8,3.5,6,7.6,6C149.9,40,154.4,36.7,154.4,31.9z"/>
		<path class="st1" d="M167.1,12.8h4.5v7.9c2.2-5,6.6-8.6,12.3-8.4v4.8h-0.4c-6.6,0-12,4.7-12,13.8v12h-4.5V12.8z"/>
		<path class="st1" d="M187.1,39.1l2.3-3.2c3.3,2.5,6.9,3.9,10.5,3.9c3.6,0,6.3-1.9,6.3-4.8v-0.1c0-3-3.6-4.2-7.5-5.3
			c-4.7-1.3-10-3-10-8.5v-0.1c0-5.2,4.3-8.6,10.3-8.6c3.7,0,7.8,1.3,10.9,3.3l-2,3.4c-2.8-1.8-6-2.9-8.9-2.9c-3.6,0-5.8,1.9-5.8,4.4
			v0.1c0,2.9,3.7,4,7.8,5.2c4.7,1.4,9.7,3.2,9.7,8.6v0.1c0,5.7-4.7,9.1-10.8,9.1C195.3,43.5,190.5,41.9,187.1,39.1z"/>
	</g>
	<g>
		<path class="st2" d="M259.2,39.6c4.2,0,7.1-1.7,9.6-4.3l2.8,2.5c-3,3.4-6.7,5.7-12.5,5.7c-8.3,0-15.1-6.4-15.1-15.8
			c0-8.8,6.2-15.8,14.5-15.8c9,0,14.1,7.1,14.1,16.1c0,0.4,0,0.9-0.1,1.6h-24C249.1,35.9,253.8,39.6,259.2,39.6z M268,25.8
			c-0.5-5.5-3.7-10.2-9.7-10.2c-5.2,0-9.2,4.3-9.8,10.2H268z"/>
		<path class="st2" d="M285.5,27.4l-11.4-14.9h5.2l9,11.7l9-11.7h5l-11.5,14.8l12,15.5h-5.2l-9.4-12.4l-9.4,12.4h-5L285.5,27.4z"/>
		<path class="st2" d="M302.6,27.8v-0.1c0-8.6,6.7-15.8,15.5-15.8c5.7,0,9.3,2.4,12.1,5.4l-3,3.2c-2.4-2.5-5.1-4.6-9.2-4.6
			c-6.2,0-10.8,5.2-10.8,11.7v0.1c0,6.6,4.8,11.8,11.1,11.8c3.9,0,6.9-1.9,9.3-4.5l2.9,2.7c-3,3.4-6.7,5.9-12.4,5.9
			C309.3,43.5,302.6,36.3,302.6,27.8z"/>
		<path class="st2" d="M335.6,0h4.5v17.8c2-3.3,5.2-5.9,10.4-5.9c7.3,0,11.6,4.9,11.6,12.1v18.8h-4.5V25.1c0-5.6-3-9.1-8.4-9.1
			c-5.2,0-9.1,3.8-9.1,9.5v17.3h-4.5V0z"/>
		<path class="st2" d="M367,34v-0.1c0-6.5,5.3-9.9,12.9-9.9c3.9,0,6.6,0.5,9.3,1.3v-0.9c0-5.4-3.3-8.2-9-8.2c-3.6,0-6.4,0.9-9.2,2.2
			l-1.3-3.7c3.3-1.5,6.6-2.6,11-2.6c4.3,0,7.6,1.2,9.8,3.3c2.1,2.1,3.2,5,3.2,8.9v18.5h-4.5v-4.5c-2.1,2.7-5.6,5.2-10.9,5.2
			C372.6,43.4,367,40.2,367,34z M389.3,31.6v-2.8c-2.2-0.6-5.2-1.3-8.8-1.3c-5.6,0-8.8,2.5-8.8,6.1v0.1c0,3.8,3.5,6,7.6,6
			C384.8,39.8,389.3,36.4,389.3,31.6z"/>
		<path class="st2" d="M399.7,12.5h4.5v5.3c2-3.3,5.2-5.9,10.4-5.9c7.3,0,11.6,4.9,11.6,12.1v18.8h-4.5V25.1c0-5.6-3-9.1-8.4-9.1
			c-5.2,0-9.1,3.8-9.1,9.5v17.3h-4.5V12.5z"/>
		<path class="st2" d="M431.9,48l2.1-3.5c3.5,2.5,7.3,3.9,11.7,3.9c6.7,0,11-3.7,11-10.8V34c-2.6,3.5-6.3,6.4-11.9,6.4
			c-7.3,0-14.2-5.4-14.2-14.2v-0.1c0-8.8,7-14.3,14.2-14.3c5.7,0,9.4,2.8,11.8,6.1v-5.4h4.5v25c0,4.7-1.4,8.3-3.9,10.7
			c-2.7,2.7-6.7,4-11.5,4C440.7,52.3,436,50.9,431.9,48z M456.8,26.2v-0.1c0-6.2-5.4-10.3-11.1-10.3s-10.5,4-10.5,10.2v0.1
			c0,6.1,4.9,10.3,10.5,10.3C451.4,36.4,456.8,32.3,456.8,26.2z"/>
		<path class="st2" d="M481,39.6c4.2,0,7.1-1.7,9.6-4.3l2.8,2.5c-3,3.4-6.7,5.7-12.5,5.7c-8.3,0-15.1-6.4-15.1-15.8
			c0-8.8,6.2-15.8,14.5-15.8c9,0,14.1,7.1,14.1,16.1c0,0.4,0,0.9-0.1,1.6h-24C471,35.9,475.7,39.6,481,39.6z M489.9,25.8
			c-0.5-5.5-3.7-10.2-9.7-10.2c-5.2,0-9.2,4.3-9.8,10.2H489.9z"/>
	</g>
	<line class="st3" x1="228.2" y1="6.1" x2="228.2" y2="49.4"/>
</g>
</svg>
