<?xml version="1.0" encoding="utf-8"?>
<!-- Generator: Adobe Illustrator 16.0.3, SVG Export Plug-In . SVG Version: 6.00 Build 0)  -->
<!DOCTYPE svg PUBLIC "-//W3C//DTD SVG 1.1//EN" "http://www.w3.org/Graphics/SVG/1.1/DTD/svg11.dtd">
<svg version="1.1" id="Layer_1" xmlns="http://www.w3.org/2000/svg" xmlns:xlink="http://www.w3.org/1999/xlink" x="0px" y="0px"
	 width="100px" height="100px" viewBox="0 0 100 100" enable-background="new 0 0 100 100" xml:space="preserve">
<path fill="#FFFFFF" d="M81.775,53.8c-0.663,0-1.325,0.067-1.979,0.134c-1.396-10.193-10.192-18.059-20.731-18.059
	c-11.558,0-20.965,9.379-20.965,20.935c0,0.417,0.021,0.813,0.034,1.196c-7.032,1.244-12.392,7.368-12.392,14.738
	c0,8.265,6.699,14.982,14.957,14.982h41.077c9.356,0,16.963-7.614,16.963-16.964C98.738,61.436,91.132,53.8,81.775,53.8z
	 M81.775,82.939H40.699c-5.615,0-10.172-4.55-10.172-10.195c0-5.551,4.533-10.133,10.104-10.145l3.067,0.064l-0.538-2.898
	c-0.18-0.994-0.271-1.97-0.271-2.956c0-8.915,7.257-16.149,16.176-16.149c8.88,0,16.089,7.211,16.145,16.102l-0.002,3.275
	l3.097-0.905c1.138-0.36,2.301-0.544,3.472-0.544c6.716,0,12.177,5.461,12.177,12.175C93.952,77.479,88.491,82.939,81.775,82.939z"
	/>
<g id="Layer_2">
	<path fill="#FFFF00" d="M15.561,41.941c0-1.314-1.056-2.395-2.394-2.395H6.394C5.078,39.547,4,40.627,4,41.941
		c0,1.318,1.078,2.394,2.394,2.394h6.772C14.504,44.335,15.561,43.26,15.561,41.941z"/>
	<path fill="#FFFF00" d="M37.213,20.292c1.313,0,2.394-1.054,2.394-2.394v-6.773c0-1.314-1.081-2.394-2.394-2.394
		c-1.318,0-2.396,1.08-2.396,2.394v6.773C34.817,19.238,35.895,20.292,37.213,20.292z"/>
	<path fill="#FFFF00" d="M18.522,26.644c0.476,0.459,1.083,0.69,1.688,0.69c0.608,0,1.232-0.23,1.705-0.69
		c0.92-0.946,0.92-2.457,0-3.387l-4.802-4.791c-0.934-0.95-2.457-0.95-3.375,0c-0.954,0.919-0.954,2.446,0,3.376L18.522,26.644z"/>
	<path fill="#FFFF00" d="M18.522,57.237l-4.788,4.802c-0.952,0.919-0.952,2.44-0.001,3.397c0.461,0.471,1.067,0.671,1.68,0.671
		c0.622,0,1.237-0.2,1.697-0.671l4.804-4.789c0.92-0.952,0.92-2.483,0-3.408C20.964,56.319,19.459,56.318,18.522,57.237z"/>
	<path fill="#FFFF00" d="M54.196,27.335c0.619,0,1.242-0.229,1.718-0.688l4.792-4.801c0.931-0.934,0.931-2.458,0-3.377
		c-0.957-0.953-2.477-0.952-3.396-0.001l-4.804,4.789c-0.92,0.932-0.92,2.44,0,3.39C52.975,27.106,53.6,27.335,54.196,27.335z"/>
	<path fill="#FFFF00" d="M31.149,53.746c-4.334-2.227-7.309-6.716-7.309-11.908c0-7.367,6.004-13.365,13.373-13.365
		c3.69,0,7.031,1.509,9.445,3.924c1.316-0.957,2.73-1.795,4.201-2.5c-3.34-3.807-8.221-6.208-13.646-6.208
		c-10.014,0-18.161,8.138-18.161,18.15c0,6.511,3.447,12.211,8.611,15.446C28.672,55.963,29.852,54.772,31.149,53.746z"/>
</g>
</svg>
