<?xml version="1.0" encoding="utf-8"?>
<!-- Generator: Adobe Illustrator 16.0.3, SVG Export Plug-In . SVG Version: 6.00 Build 0)  -->
<!DOCTYPE svg PUBLIC "-//W3C//DTD SVG 1.1//EN" "http://www.w3.org/Graphics/SVG/1.1/DTD/svg11.dtd">
<svg version="1.1" id="Layer_1" xmlns="http://www.w3.org/2000/svg" xmlns:xlink="http://www.w3.org/1999/xlink" x="0px" y="0px"
	 width="100px" height="100px" viewBox="0 0 100 100" enable-background="new 0 0 100 100" xml:space="preserve">
<path fill="#FFF200" d="M50.308,23.078c-14.613,0-26.504,11.893-26.504,26.504c0,14.614,11.891,26.515,26.504,26.515
	c14.623,0,26.504-11.901,26.504-26.515C76.812,34.971,64.931,23.078,50.308,23.078z M50.308,69.1
	c-10.765,0-19.517-8.752-19.517-19.517c0-10.763,8.752-19.517,19.517-19.517c10.752,0,19.518,8.754,19.518,19.517
	C69.825,60.348,61.06,69.1,50.308,69.1z M50.308,18.12c1.937,0,3.493-1.565,3.493-3.493V4.722c0-1.928-1.557-3.494-3.493-3.494
	c-1.928,0-3.493,1.565-3.493,3.494v9.905C46.815,16.555,48.379,18.12,50.308,18.12z M50.308,81.327
	c-1.928,0-3.493,1.575-3.493,3.497v9.912c0,1.932,1.564,3.494,3.493,3.494c1.937,0,3.493-1.563,3.493-3.494v-9.912
	C53.801,82.902,52.244,81.327,50.308,81.327z M23.012,27.38c0.687,0.679,1.58,1.021,2.474,1.021c0.893,0,1.785-0.341,2.473-1.021
	c1.363-1.362,1.363-3.583,0-4.947l-7.001-7c-1.367-1.364-3.585-1.364-4.946,0c-1.364,1.362-1.364,3.58,0,4.946L23.012,27.38z
	 M77.601,72.075c-1.374-1.362-3.574-1.362-4.946,0c-1.37,1.373-1.37,3.572,0,4.947l7.001,7.002c0.686,0.687,1.58,1.02,2.474,1.02
	c0.901,0,1.787-0.333,2.474-1.02c1.369-1.373,1.369-3.572,0-4.948L77.601,72.075z M18.696,49.729c0-1.928-1.566-3.494-3.494-3.494
	H5.298c-1.928,0-3.493,1.565-3.493,3.494c0,1.938,1.565,3.493,3.493,3.493h9.905C17.13,53.223,18.696,51.668,18.696,49.729z
	 M95.313,46.236h-9.909c-1.925,0-3.5,1.565-3.5,3.494c0,1.938,1.575,3.493,3.5,3.493h9.909c1.927,0,3.492-1.555,3.492-3.493
	C98.805,47.801,97.239,46.236,95.313,46.236z M23.012,72.078l-7.003,6.998c-1.364,1.376-1.364,3.576-0.001,4.948
	c0.686,0.688,1.58,1.021,2.474,1.021c0.893,0,1.786-0.332,2.474-1.019l7.003-7.001c1.363-1.374,1.363-3.573,0-4.947
	C26.595,70.713,24.375,70.713,23.012,72.078z M75.125,28.403c0.896,0,1.786-0.343,2.474-1.019l7.002-7.001
	c1.371-1.37,1.371-3.584,0-4.947c-1.372-1.363-3.571-1.364-4.947,0l-7.002,7c-1.367,1.363-1.367,3.584-0.001,4.948
	C73.338,28.06,74.226,28.403,75.125,28.403z"/>
</svg>